<?xml version="1.0" standalone="no"?><!DOCTYPE svg PUBLIC "-//W3C//DTD SVG 1.1//EN" "http://www.w3.org/Graphics/SVG/1.1/DTD/svg11.dtd"><svg t="1512034402935" class="icon" style="" viewBox="0 0 1024 1024" version="1.1" xmlns="http://www.w3.org/2000/svg" p-id="20342" xmlns:xlink="http://www.w3.org/1999/xlink" width="200" height="200"><defs><style type="text/css"></style></defs><path d="M904.943 731.367c42.062-67.907 66.99-150.264 66.99-238.445l-0.001-0.683C971.919 238.269 766.005 32.356 512 32.356c-254.005 0-459.919 205.913-459.919 459.919l-0.001 0.674c0 83.742 22.479 162.234 61.733 229.77 4.214 7.1 14.11 13.246 25.443 13.246 16.938 0 30.668-13.731 30.668-30.668 0-5.605-1.504-10.86-4.131-15.382-32.916-56.46-52.393-124.454-52.393-196.997l0.001-0.678c0-220.107 178.455-398.562 398.597-398.562s398.597 178.455 398.597 398.597c0 74.17-20.252 145.263-57.995 207.176-2.508 4.348-3.988 9.563-3.988 15.123 0 16.937 13.731 30.668 30.668 30.668 10.688 0 20.1-5.468 25.589-13.76zM747.765 622.229c25.234-40.748 40.189-90.164 40.189-143.075v-0.422c0-152.368-123.55-275.919-275.954-275.919s-275.954 123.55-275.954 275.954c0 48.683 12.651 95.605 36.349 136.964 5.288 9.667 15.389 16.115 26.994 16.115 16.937 0 30.668-13.731 30.668-30.668a30.525 30.525 0 0 0-4.53-16.05c-17.678-30.334-28.159-66.927-28.159-105.969v-0.413c0-118.519 96.092-214.597 214.632-214.597s214.619 96.079 214.619 214.619c0 39.938-10.889 78.207-31.207 111.544-2.567 4.387-4.083 9.662-4.083 15.289 0 16.937 13.731 30.668 30.667 30.668 10.759 0 20.223-5.54 25.697-13.922zM450.678 952.18c50.801 0 91.989-34.31 91.989-76.643 0-42.345-41.188-76.656-91.989-76.656s-91.989 34.324-91.989 76.656 41.188 76.656 91.989 76.656z" p-id="20343"></path><path d="M444.195 749.751c-79.233 0-146.038 52.313-146.038 121.013s66.805 121.013 146.038 121.013S590.22 939.464 590.22 870.764s-66.792-121.012-146.025-121.012z m0 61.322c48.197 0 84.703 28.59 84.703 59.691 0 31.088-36.506 59.691-84.703 59.691s-84.716-28.603-84.716-59.704c0-31.088 36.519-59.678 84.716-59.678z" p-id="20344"></path><path d="M590.273 851.656l10.087-341.655 0.001-0.286c0-16.937-13.731-30.668-30.668-30.668-16.4 0-29.793 12.873-30.626 29.064L528.964 849.84l-0.001 0.27c0 16.937 13.731 30.668 30.668 30.668 16.399 0 29.791-12.871 30.626-29.062z m56.864-396.165c-30.42 4.452-57.813 12.134-83.638 22.835 31.246-11.275 7.509-3.266 4.222-2.477-13.417 3.468-23.167 15.463-23.167 29.736 0 16.937 13.731 30.668 30.667 30.668 2.475 0 4.882-0.293 7.187-0.847 6.275-1.536 31.235-9.952 38.73-12.017 10.521-2.893 21.751-5.287 34.942-7.233 14.581-2.549 25.522-15.113 25.522-30.232 0-16.937-13.731-30.668-30.667-30.668a30.85 30.85 0 0 0-3.951 0.252z" p-id="20345"></path></svg>